<?xml version="1.0" encoding="UTF-8"?>
<svg version="1.1" xmlns="http://www.w3.org/2000/svg" width="512" height="512">
<path d="M0 0 C1.65128906 -0.04253906 1.65128906 -0.04253906 3.3359375 -0.0859375 C11.60291142 1.07261704 17.19881527 8.61599056 22.8125 14.25 C23.71419922 15.13558594 24.61589844 16.02117188 25.54492188 16.93359375 C26.84333008 18.23103516 26.84333008 18.23103516 28.16796875 19.5546875 C28.95196045 20.33569824 29.73595215 21.11670898 30.54370117 21.92138672 C34.02284084 26.02289448 36.05204988 29.9618122 36 35.375 C36.00773437 36.179375 36.01546875 36.98375 36.0234375 37.8125 C34.91227811 44.95877997 30.07194724 49.38208854 25.17578125 54.2578125 C24.44433395 54.99450165 23.71288666 55.7311908 22.95927429 56.49020386 C21.41388385 58.0420004 19.86462593 59.58995384 18.31176758 61.13427734 C15.95056563 63.48698139 13.60859862 65.8577031 11.26757812 68.23046875 C9.7589445 69.74071497 8.2492139 71.24986635 6.73828125 72.7578125 C6.0452742 73.46205353 5.35226715 74.16629456 4.63825989 74.89187622 C-2.64587258 82.07408412 -9.2848569 85.36534002 -19.5625 85.4375 C-20.83480469 85.42847656 -22.10710937 85.41945313 -23.41796875 85.41015625 C-28.84877253 86.04609777 -31.99439568 90.44056508 -35.375 94.375 C-33.49180054 94.39687378 -33.49180054 94.39687378 -31.57055664 94.41918945 C-26.87935976 94.477489 -22.18862706 94.55471859 -17.49780273 94.63745117 C-15.47379126 94.67055228 -13.44969076 94.69862957 -11.42553711 94.72143555 C-8.50336027 94.75525537 -5.58198842 94.80758341 -2.66015625 94.86328125 C-1.76603531 94.86967117 -0.87191437 94.8760611 0.04930115 94.88264465 C6.51499766 95.03142535 13.41587876 95.62948574 18.51036072 99.98799133 C22.02235653 103.69201948 23.82050725 107.27987922 24.625 112.375 C24.29078924 119.81224038 21.6110081 125.87719574 18.671875 132.65234375 C18.17463928 133.81826553 17.67740356 134.98418732 17.1651001 136.18544006 C16.11401378 138.6443128 15.05927824 141.10116549 13.99755859 143.55541992 C12.64811984 146.67529309 11.31192233 149.80061327 9.98032761 152.92813778 C8.69556574 155.94275842 7.40235545 158.95374087 6.109375 161.96484375 C5.63522156 163.07447983 5.16106812 164.18411591 4.67254639 165.32737732 C-3.55075054 184.30960555 -3.55075054 184.30960555 -11.75 188.625 C-15.02878277 189.56179508 -17.98307544 189.50801665 -21.375 189.375 C-21.60574219 190.02082031 -21.83648437 190.66664063 -22.07421875 191.33203125 C-23.81984439 195.41564198 -25.99909972 199.20226602 -28.1875 203.0625 C-31.43888802 208.83291326 -34.58664843 214.5951882 -37.33984375 220.625 C-38.375 222.375 -38.375 222.375 -41.375 224.375 C-45.06222891 224.8559429 -46.93574794 224.60417499 -50.25 222.875 C-52.64253367 220.0602545 -52.92330302 218.46451759 -52.82470703 214.82226562 C-51.85886697 209.56625001 -48.94313518 204.99870016 -46.375 200.375 C-44.395 196.745 -42.415 193.115 -40.375 189.375 C-55.885 189.375 -71.395 189.375 -87.375 189.375 C-88.365 192.345 -89.355 195.315 -90.375 198.375 C-90.95285689 199.88843471 -91.54666452 201.39613008 -92.171875 202.890625 C-92.48745361 203.65673096 -92.80303223 204.42283691 -93.12817383 205.2121582 C-93.62160278 206.40651489 -93.62160278 206.40651489 -94.125 207.625 C-97.43661352 215.74958427 -100.34769916 223.9544156 -103.02832031 232.30761719 C-107.34093189 245.68562126 -107.34093189 245.68562126 -111.375 248.375 C-115.31604552 248.97472432 -116.92512835 248.66215212 -120.3125 246.5 C-123.3108194 241.95709182 -122.35308193 238.58449097 -121.375 233.375 C-120.19138672 228.95148721 -118.74692081 224.63881284 -117.25 220.3125 C-116.64973999 218.54362427 -116.64973999 218.54362427 -116.03735352 216.73901367 C-112.84251204 207.44394835 -109.26603833 198.3988974 -105.375 189.375 C-117.255 189.375 -129.135 189.375 -141.375 189.375 C-142.19554688 195.70198413 -143.01424126 202.02915847 -143.82861328 208.35693359 C-144.10493772 210.49996892 -144.38224703 212.64287753 -144.66064453 214.78564453 C-145.06555824 217.90362629 -145.46718453 221.02200963 -145.8671875 224.140625 C-145.99961853 225.16716187 -146.13204956 226.19369873 -146.26849365 227.25134277 C-146.89895517 232.23219557 -147.4716644 237.20740525 -147.91113281 242.20898438 C-147.99235382 243.12194275 -148.07357483 244.03490112 -148.15725708 244.9755249 C-148.30298707 246.6772395 -148.437777 248.37994244 -148.55929565 250.08355713 C-148.93966946 254.56438797 -149.52935727 257.70704564 -152.375 261.375 C-155.46673752 262.92086876 -157.96929552 262.66859521 -161.375 262.375 C-164.00339125 260.36741973 -165.22095499 259.18028578 -165.84912109 255.89648438 C-165.59611427 246.10920119 -164.53225487 236.45085266 -163.34863281 226.73681641 C-163.00077902 223.88139476 -162.66348263 221.02488239 -162.328125 218.16796875 C-162.10738356 216.30982294 -161.886049 214.45174748 -161.6640625 212.59375 C-161.56501617 211.76105591 -161.46596985 210.92836182 -161.36392212 210.07043457 C-160.51688442 203.13880717 -159.43853987 196.28800916 -158.375 189.375 C-171.245 189.705 -184.115 190.035 -197.375 190.375 C-198.27970816 200.5902888 -198.27970816 200.5902888 -199.16943359 210.80688477 C-199.28625488 212.08877686 -199.40307617 213.37066895 -199.5234375 214.69140625 C-199.63864746 215.99537354 -199.75385742 217.29934082 -199.87255859 218.64282227 C-201.13212034 227.99895467 -201.13212034 227.99895467 -204.125 231.3125 C-207.14066861 232.73656573 -209.07666169 232.85600767 -212.375 232.375 C-214.67775556 230.5079009 -216.05323871 229.01852259 -217.375 226.375 C-217.33597863 223.71254171 -217.2295956 221.0926184 -217.0625 218.4375 C-217.01617432 217.65004395 -216.96984863 216.86258789 -216.92211914 216.05126953 C-216.35830966 207.12707139 -215.3696392 198.26044349 -214.375 189.375 C-221.305 189.375 -228.235 189.375 -235.375 189.375 C-235.5090625 191.36789063 -235.643125 193.36078125 -235.78125 195.4140625 C-236.43045823 204.50526369 -237.34820751 213.56552738 -238.26953125 222.6328125 C-239.78902147 237.91980503 -240.53925376 253.0858458 -240.578125 268.44140625 C-240.58506079 270.15199303 -240.5920559 271.86257958 -240.59910583 273.57316589 C-240.61831038 279.02794654 -240.6230259 284.48268954 -240.625 289.9375 C-240.62573643 290.86540848 -240.62647285 291.79331696 -240.6272316 292.74934387 C-240.64620106 322.06433202 -240.09401016 351.16651533 -237.375 380.375 C-237.30285278 381.16420837 -237.23070557 381.95341675 -237.15637207 382.76654053 C-236.37547831 391.30803081 -235.55157465 399.84216337 -234.6027832 408.36694336 C-234.32565774 412.02660348 -234.375 415.70486231 -234.375 419.375 C-227.445 419.375 -220.515 419.375 -213.375 419.375 C-213.85977712 414.6609463 -213.85977712 414.6609463 -214.39355469 409.95239258 C-214.70231887 406.31163024 -214.49515522 404.5664814 -212.5390625 401.44921875 C-210.00078688 399.0163228 -208.88503332 398.375 -205.375 398.375 C-202.1875 399.25 -202.1875 399.25 -199.375 401.375 C-196.84679416 407.1742968 -197.375 413.10488744 -197.375 419.375 C-175.925 419.375 -154.475 419.375 -132.375 419.375 C-133.365 410.135 -134.355 400.895 -135.375 391.375 C-136.51610117 378.25233651 -136.61680041 365.16432125 -136.625 352 C-136.62600708 350.87516205 -136.62701416 349.7503241 -136.62805176 348.59140015 C-136.61664479 329.68083476 -135.84852361 311.1323382 -133.375 292.375 C-133.2198291 291.17713867 -133.0646582 289.97927734 -132.90478516 288.74511719 C-132.44801128 285.34515503 -131.95552813 281.95362747 -131.4375 278.5625 C-131.2921582 277.57677002 -131.14681641 276.59104004 -130.99707031 275.57543945 C-130.33495475 271.67658667 -129.83419221 269.01080459 -127.49609375 265.7734375 C-124.57038244 263.84451549 -122.70967145 263.72767976 -119.28515625 263.9453125 C-117.375 264.375 -117.375 264.375 -114.8125 266.1875 C-113.26818781 269.61184442 -113.30282725 270.81012383 -113.6953125 274.4375 C-113.79996826 275.41759033 -113.90462402 276.39768066 -114.01245117 277.4074707 C-114.43649201 280.87832352 -114.89972179 284.34018627 -115.40963745 287.79943848 C-118.43623839 308.5575969 -119.75640839 329.21756772 -119.6875 350.1875 C-119.6867598 351.75769897 -119.6867598 351.75769897 -119.68600464 353.35961914 C-119.65862155 372.49659336 -118.51384373 391.36305572 -116.375 410.375 C-116.045 413.345 -115.715 416.315 -115.375 419.375 C-101.845 419.375 -88.315 419.375 -74.375 419.375 C-75.035 416.735 -75.695 414.095 -76.375 411.375 C-76.68727739 409.46185049 -76.96276292 407.54212398 -77.19140625 405.6171875 C-77.31580078 404.57820313 -77.44019531 403.53921875 -77.56835938 402.46875 C-77.69017578 401.4065625 -77.81199219 400.344375 -77.9375 399.25 C-78.06318359 398.21101563 -78.18886719 397.17203125 -78.31835938 396.1015625 C-80.03097352 381.53985897 -80.61524588 367.08537714 -80.625 352.4375 C-80.62567474 351.5190329 -80.62634949 350.6005658 -80.62704468 349.65426636 C-80.59168583 319.11248188 -76.86545459 289.37508771 -69.3125 259.75 C-69.07942139 258.8321875 -68.84634277 257.914375 -68.60620117 256.96875 C-67.09482188 251.31536314 -65.49507215 245.37564474 -62.375 240.375 C-58.9375 238.625 -58.9375 238.625 -55.375 238.375 C-51.76555533 239.89898775 -50.56416735 241.09124898 -48.375 244.375 C-48.73270757 250.92323864 -50.5192957 257.02983458 -52.3125 263.3125 C-56.25109318 275.63293306 -56.25109318 275.63293306 -57.375 288.375 C-56.59898437 287.62476563 -55.82296875 286.87453125 -55.0234375 286.1015625 C-41.63211856 273.33363255 -23.07614316 257.08785198 -3.9375 255 C0.39792189 255.4563602 3.28570278 256.57206658 6.625 259.375 C15.61273238 273.15618964 11.66209143 298.82731915 8.60180664 314.1887207 C4.54484297 332.56418089 -1.61935366 350.25482325 -9.375 367.375 C-8.83834717 367.18389648 -8.30169434 366.99279297 -7.7487793 366.79589844 C11.44288103 360.0230904 30.0746625 355.18722161 50.53100586 355.18969727 C52.55408733 355.1875091 54.57662384 355.16930162 56.59960938 355.15039062 C66.61790293 355.13544538 74.21451247 355.14525607 81.625 362.375 C83.93931484 367.00362968 83.56233636 372.50831296 81.98046875 377.34619141 C77.93364507 387.55674949 72.25751846 396.65468008 65.625 405.375 C64.99722656 406.22578125 64.36945313 407.0765625 63.72265625 407.953125 C52.43202196 422.53033997 38.54124715 435.58532884 23.625 446.375 C23.02647217 446.8297168 22.42794434 447.28443359 21.8112793 447.75292969 C21.20195557 448.20829102 20.59263184 448.66365234 19.96484375 449.1328125 C19.4143335 449.54934082 18.86382324 449.96586914 18.29663086 450.39501953 C15.35733029 452.11816141 12.8987121 451.86914522 9.625 451.375 C7.25 450.25 7.25 450.25 5.625 448.375 C4.55151264 445.08297208 4.22931102 443.26605533 5.6484375 440.0703125 C8.33888882 436.40151524 11.61295318 433.90314306 15.1875 431.125 C16.64339901 429.96669143 18.09782941 428.80653453 19.55078125 427.64453125 C20.25412598 427.08330566 20.9574707 426.52208008 21.68212891 425.94384766 C25.82829076 422.59586624 29.75657698 419.03752309 33.625 415.375 C34.32786133 414.71298584 34.32786133 414.71298584 35.04492188 414.03759766 C47.50567317 402.22094891 60.09689631 387.95931107 65.625 371.375 C31.24512888 370.09376257 -2.45463959 380.21454391 -32.55273438 396.3984375 C-34.47876368 397.43060755 -36.41750181 398.4354859 -38.359375 399.4375 C-45.29449893 403.04084511 -52.00776691 406.8195812 -58.375 411.375 C-58.24887253 415.45660239 -58.24887253 415.45660239 -57.375 419.375 C-54.64250881 421.03373157 -54.64250881 421.03373157 -51.375 422.375 C-44.45516478 427.63141329 -43.59834448 435.25452373 -42.375 443.375 C-42.23964844 444.26380859 -42.10429687 445.15261719 -41.96484375 446.06835938 C-41.04870727 452.16355567 -40.19092412 458.26562603 -39.375 464.375 C-38.73997559 464.04177734 -38.10495117 463.70855469 -37.45068359 463.36523438 C-34.55687795 461.85578989 -31.65370741 460.36530128 -28.75 458.875 C-27.25146484 458.08802734 -27.25146484 458.08802734 -25.72265625 457.28515625 C-24.74941406 456.78886719 -23.77617187 456.29257812 -22.7734375 455.78125 C-21.88317871 455.32041016 -20.99291992 454.85957031 -20.07568359 454.38476562 C-16.9670257 453.22246143 -14.66942079 453.07931012 -11.375 453.375 C-8.43072265 455.44395165 -7.53167045 456.88409927 -6.4375 460.3125 C-6.35779896 464.21785116 -6.94289702 465.30407072 -9.375 468.375 C-12.32224403 470.35872917 -15.44593546 471.92252791 -18.625 473.5 C-19.45902344 473.92925781 -20.29304687 474.35851562 -21.15234375 474.80078125 C-25.82202316 477.18327075 -30.53098246 479.37193329 -35.375 481.375 C-35.28798828 483.293125 -35.28798828 483.293125 -35.19921875 485.25 C-35.15228753 486.95829656 -35.106791 488.66663295 -35.0625 490.375 C-34.9996582 491.63376953 -34.9996582 491.63376953 -34.93554688 492.91796875 C-34.82995995 498.36625432 -35.7114979 501.96721204 -38.60864258 506.5859375 C-42.81427717 510.84563208 -47.17950713 512.8159107 -53.14030695 512.90997362 C-53.84274955 512.90105073 -54.54519216 512.89212785 -55.2689209 512.88293457 C-56.0335872 512.88917453 -56.79825351 512.8954145 -57.58609152 512.90184355 C-60.13258358 512.91771987 -62.67811126 512.90519092 -65.22460938 512.89257812 C-67.05663102 512.89800164 -68.8886483 512.90512559 -70.72065735 512.91381836 C-75.68553967 512.93202728 -80.65008887 512.92499419 -85.61497688 512.91230202 C-90.8153891 512.90216178 -96.01577316 512.91157054 -101.21618652 512.91784668 C-109.94870108 512.92512009 -118.68108023 512.91554338 -127.41357422 512.89648438 C-137.50373673 512.87471626 -147.59357592 512.88176784 -157.6837306 512.90379 C-166.35315194 512.92195268 -175.02247605 512.92449806 -183.69191027 512.91403532 C-188.8670637 512.90780519 -194.04206524 512.90695161 -199.21720886 512.92018127 C-204.08303622 512.93175174 -208.94844747 512.92369207 -213.81422997 512.90060425 C-215.59800209 512.89532357 -217.38180934 512.89681996 -219.1655674 512.90565491 C-221.60454106 512.91661968 -224.04218941 512.90283682 -226.4810791 512.88293457 C-227.1835217 512.89185746 -227.88596431 512.90078034 -228.60969305 512.90997362 C-234.90711334 512.81059875 -238.96581598 510.51649691 -243.625 506.375 C-248.19093723 498.54767903 -249.01975601 488.36344666 -250.41796875 479.51171875 C-250.67795403 477.89738701 -250.67795403 477.89738701 -250.94319153 476.2504425 C-251.3044811 473.99802353 -251.66315436 471.74518344 -252.01928711 469.49194336 C-252.56407813 466.05253685 -253.12037927 462.61512469 -253.67773438 459.17773438 C-254.02933478 456.97667244 -254.38026967 454.77550408 -254.73046875 452.57421875 C-254.89604782 451.55430344 -255.06162689 450.53438812 -255.23222351 449.48356628 C-257.35803848 435.89691623 -257.35803848 435.89691623 -255.0625 430.1875 C-254.69705078 429.23810547 -254.69705078 429.23810547 -254.32421875 428.26953125 C-253.375 426.375 -253.375 426.375 -251.81025696 424.55334473 C-250.05822696 421.89422137 -250.12219013 420.75433303 -250.46166992 417.62695312 C-250.55554489 416.68235229 -250.64941986 415.73775146 -250.74613953 414.76452637 C-250.86471817 413.73879517 -250.98329681 412.71306396 -251.10546875 411.65625 C-251.21595047 410.57089966 -251.32643219 409.48554932 -251.44026184 408.36730957 C-251.79853 404.86801144 -252.17890316 401.37160485 -252.5625 397.875 C-256.15881033 364.36625069 -257.73854722 331.08734742 -257.69067383 297.39501953 C-257.68604626 293.88870398 -257.69298314 290.3827358 -257.71118164 286.87646484 C-257.81097727 267.42808788 -257.46325522 248.10912773 -255.9765625 228.7109375 C-255.91366343 227.88905693 -255.85076435 227.06717636 -255.78595924 226.22039032 C-254.88807626 214.75427055 -253.66175343 203.35850562 -251.9443512 191.98376465 C-251.25082192 187.33716765 -250.93912042 185.17396091 -253.24609375 180.9453125 C-253.94863281 180.09710938 -254.65117187 179.24890625 -255.375 178.375 C-259.26039309 167.30978857 -253.84631281 150.65992489 -252.04638672 139.47143555 C-251.49875448 136.05472912 -250.96579186 132.6359372 -250.43359375 129.21679688 C-250.0842195 127.02329617 -249.73398889 124.82993166 -249.3828125 122.63671875 C-249.22644318 121.62510178 -249.07007385 120.6134848 -248.90896606 119.57121277 C-246.41094042 104.29289877 -246.41094042 104.29289877 -241.1875 100 C-240.39279297 99.30777344 -240.39279297 99.30777344 -239.58203125 98.6015625 C-233.98580245 95.49144597 -227.82829205 95.12019496 -221.55078125 95.109375 C-220.48684395 95.10650482 -220.48684395 95.10650482 -219.40141296 95.10357666 C-217.91661215 95.10222702 -216.43179904 95.10583722 -214.94702148 95.11425781 C-212.68251066 95.12502372 -210.41878428 95.11429672 -208.15429688 95.1015625 C-206.70312326 95.10288338 -205.25195014 95.10544428 -203.80078125 95.109375 C-202.49536377 95.11163086 -201.18994629 95.11388672 -199.8449707 95.11621094 C-196.53458233 95.36309841 -194.31010047 95.86878114 -191.375 97.375 C-189.20780794 100.0347357 -189.37965137 101.46337596 -189.5625 104.9375 C-190.65141847 109.54446277 -190.65141847 109.54446277 -193.375 111.375 C-196.16640762 111.70609523 -198.74716688 111.86357678 -201.54296875 111.88671875 C-202.33778152 111.90466995 -203.1325943 111.92262115 -203.95149231 111.94111633 C-206.48844101 111.9952697 -209.02520107 112.02913028 -211.5625 112.0625 C-213.28322941 112.09566874 -215.0039339 112.13015799 -216.72460938 112.16601562 C-220.94127022 112.25099873 -225.15787464 112.31778542 -229.375 112.375 C-230.035 114.685 -230.695 116.995 -231.375 119.375 C-229.56128906 119.90287109 -229.56128906 119.90287109 -227.7109375 120.44140625 C-207.01311385 126.61105191 -193.33704773 135.82688967 -177.84741211 150.57348633 C-162.81920752 164.8686883 -150.45076879 172.85797322 -129.078125 172.6484375 C-122.21130551 172.14139387 -117.57390885 170.01758434 -112.9375 164.9375 C-109.05144356 159.86732664 -107.80811515 155.83748724 -108.375 149.375 C-110.12325501 144.68231549 -112.14155142 142.04391323 -116.375 139.375 C-120.86763391 137.49578543 -125.4135526 136.34195462 -130.1875 135.4375 C-133.06440243 134.81886539 -134.44799162 134.32515206 -136.9375 132.625 C-138.87870942 129.58658525 -138.95419039 127.92254112 -138.375 124.375 C-137.0625 121.5 -137.0625 121.5 -134.375 119.375 C-123.6523178 117.46794578 -112.14568485 121.27365402 -103.375 127.375 C-96.77169926 132.60533722 -93.06148768 139.13170039 -91.375 147.375 C-90.44789021 156.61570087 -92.17846042 165.58019063 -97.375 173.375 C-70.975 173.045 -44.575 172.715 -17.375 172.375 C-15.395 168.085 -13.415 163.795 -11.375 159.375 C-12.73625 159.313125 -14.0975 159.25125 -15.5 159.1875 C-28.75420821 157.80021371 -40.42215202 151.84033631 -49.625 142.25 C-56.40749085 133.67330373 -61.54389866 122.35341316 -61.375 111.375 C-61.92276218 111.37868717 -62.47052437 111.38237434 -63.03488541 111.38617325 C-76.3635154 111.47451292 -89.69209411 111.54044859 -103.02095413 111.58224869 C-109.46671694 111.60314134 -115.91226878 111.63149018 -122.35791016 111.67675781 C-128.57596669 111.72015483 -134.79382003 111.74412446 -141.0120163 111.75450897 C-143.38674876 111.76191132 -145.76146985 111.776366 -148.13611603 111.79792023 C-151.45720123 111.8268717 -154.77744214 111.83095935 -158.09863281 111.82910156 C-159.08478073 111.84348267 -160.07092865 111.85786377 -161.08695984 111.87268066 C-167.71397894 111.83245194 -167.71397894 111.83245194 -170.9899292 109.56536865 C-173.01747639 106.35897962 -172.83910988 104.08787904 -172.375 100.375 C-171.05851131 97.87367149 -170.28123061 96.69996977 -167.60617542 95.74070835 C-164.89671978 95.29660586 -162.65078772 95.54970113 -159.92619324 95.89866638 C-123.32593517 100.20389035 -123.32593517 100.20389035 -90.24059319 86.99405026 C-77.96575127 77.15098431 -67.393058 65.27533815 -57.08833206 53.44090116 C-52.1500319 47.78263958 -47.02692569 42.30511659 -41.88381636 36.83342755 C-35.60234601 30.14949388 -29.34457134 23.44833885 -23.23908997 16.60279846 C-21.97677048 15.1890242 -21.97677048 15.1890242 -20.68894958 13.74668884 C-19.12395123 11.98663814 -17.56437518 10.22174507 -16.0112915 8.45117188 C-15.32273575 7.67576553 -14.63417999 6.90035919 -13.92475891 6.10145569 C-13.33183202 5.42615846 -12.73890512 4.75086123 -12.12801075 4.05510044 C-8.38745044 0.47011557 -5.08745785 0.05929438 0 0 Z M-3.21635437 17.85559082 C-4.24560783 18.89483704 -4.24560783 18.89483704 -5.2956543 19.95507812 C-6.07623703 20.73588745 -6.85681976 21.51669678 -7.66105652 22.32116699 C-8.49865005 23.17424438 -9.33624359 24.02732178 -10.19921875 24.90625 C-11.49132011 26.20471863 -11.49132011 26.20471863 -12.80952454 27.52941895 C-15.56761165 30.30434053 -18.31510457 33.08949623 -21.0625 35.875 C-22.9270474 37.75458798 -24.79227319 39.63350326 -26.65820312 41.51171875 C-31.23837826 46.1250265 -35.80989043 50.74678623 -40.375 55.375 C-37.33736 61.70871473 -32.52288083 66.93071504 -25.875 69.5 C-21.19114369 70.72117695 -17.74253899 70.42357883 -13.375 68.375 C-5.67246918 62.70375805 0.90186723 55.21134812 7.625 48.4375 C8.79273374 47.26473991 9.96070074 46.09221202 11.12890625 44.91992188 C13.96363234 42.07428311 16.79518824 39.22552547 19.625 36.375 C17.39496268 31.32389878 13.55024884 27.97076226 9.6875 24.125 C8.59405273 23.00738281 8.59405273 23.00738281 7.47851562 21.8671875 C6.77533203 21.16335937 6.07214844 20.45953125 5.34765625 19.734375 C4.70578369 19.08952148 4.06391113 18.44466797 3.40258789 17.78027344 C0.81487638 15.73455617 -0.66078244 15.80071404 -3.21635437 17.85559082 Z M-57.56570435 72.3134613 C-58.40329788 73.16183311 -58.40329788 73.16183311 -59.2578125 74.02734375 C-59.83207977 74.60206924 -60.40634705 75.17679474 -60.99801636 75.76893616 C-62.2124744 76.98641914 -63.42449719 78.2063354 -64.63427734 79.4284668 C-66.49396074 81.30640146 -68.36151672 83.17621595 -70.23046875 85.04492188 C-71.40672319 86.22609147 -72.5825202 87.4077168 -73.7578125 88.58984375 C-74.60147873 89.43517921 -74.60147873 89.43517921 -75.46218872 90.29759216 C-78.14771839 92.479748 -78.14771839 92.479748 -79.375 95.375 C-67.66941515 97.30003041 -67.66941515 97.30003041 -56.75927734 93.70654297 C-51.38138477 89.14873959 -46.76068238 83.88035777 -42.375 78.375 C-43.31090504 77.2694811 -44.24879858 76.16564547 -45.1875 75.0625 C-45.97060547 74.14017578 -45.97060547 74.14017578 -46.76953125 73.19921875 C-48.97507905 70.69095433 -48.97507905 70.69095433 -51.375 68.375 C-54.39120142 68.375 -55.53178887 70.2915707 -57.56570435 72.3134613 Z M-45.375 111.375 C-45.07015086 112.98157508 -44.76076688 114.58729013 -44.44946289 116.19262695 C-44.27766006 117.08689896 -44.10585724 117.98117096 -43.92884827 118.90254211 C-42.18294798 126.69649074 -37.09186576 132.39110109 -30.72265625 136.91015625 C-22.57373868 141.9947554 -14.00201584 144.375 -4.375 144.375 C-2.65400268 140.6267197 -0.94545358 136.87303821 0.75195312 133.11401367 C1.33062082 131.83709342 1.91261688 130.56167591 2.49804688 129.2878418 C3.34085866 127.45243281 4.1705839 125.61103248 5 123.76953125 C5.50273437 122.66456299 6.00546875 121.55959473 6.5234375 120.42114258 C7.59226268 117.46552826 7.95027754 115.48020879 7.625 112.375 C6.61308362 111.1412802 6.61308362 111.1412802 4.53062439 111.25474548 C3.60907059 111.25696609 2.68751678 111.25918671 1.73803711 111.26147461 C0.17653175 111.26158791 0.17653175 111.26158791 -1.41651917 111.26170349 C-3.11493202 111.26944542 -3.11493202 111.26944542 -4.84765625 111.27734375 C-6.00043564 111.2787587 -7.15321503 111.28017365 -8.34092712 111.28163147 C-12.03981064 111.28724995 -15.73863464 111.29980558 -19.4375 111.3125 C-21.93815017 111.31751262 -24.43880129 111.32207594 -26.93945312 111.32617188 C-33.08465588 111.33722538 -39.22982369 111.35398148 -45.375 111.375 Z M-234.375 136.375 C-236.36125229 143.58302868 -237.47354413 150.85925257 -238.5625 158.25 C-238.75263672 159.48492187 -238.94277344 160.71984375 -239.13867188 161.9921875 C-239.31333984 163.1678125 -239.48800781 164.3434375 -239.66796875 165.5546875 C-239.8280542 166.62444824 -239.98813965 167.69420898 -240.15307617 168.79638672 C-240.59986472 171.36048749 -240.59986472 171.36048749 -239.375 173.375 C-219.245 173.375 -199.115 173.375 -178.375 173.375 C-183.5582996 167.32781713 -188.85676648 162.03586529 -194.78271484 156.7890625 C-195.82250534 155.86565457 -196.85696473 154.93619861 -197.88525391 154 C-207.49356996 145.2645901 -220.8007656 136.375 -234.375 136.375 Z M-15.875 276.8125 C-16.4944751 277.17520996 -17.1139502 277.53791992 -17.75219727 277.91162109 C-34.04156332 287.63730018 -48.1419818 300.94003853 -60.375 315.375 C-60.89634521 315.98947998 -61.41769043 316.60395996 -61.95483398 317.23706055 C-67.19489321 325.12552516 -64.57001247 340.91805228 -64.5625 350.1875 C-64.5632251 351.09531219 -64.5639502 352.00312439 -64.56469727 352.93844604 C-64.56349688 366.5209196 -64.12521238 379.88898852 -62.375 393.375 C-56.75507344 391.22633428 -51.59126788 388.36807323 -46.3125 385.5 C-45.31927734 384.97019531 -44.32605469 384.44039063 -43.30273438 383.89453125 C-42.34560547 383.37503906 -41.38847656 382.85554688 -40.40234375 382.3203125 C-39.53343506 381.85125488 -38.66452637 381.38219727 -37.76928711 380.89892578 C-31.58300204 376.96145343 -29.22203783 371.62235064 -26.1875 365.1875 C-25.46892822 363.66793701 -25.46892822 363.66793701 -24.73583984 362.11767578 C-13.55898702 337.97582176 -5.12265391 312.70579931 -5.3125 285.9375 C-5.31701172 284.72900391 -5.32152344 283.52050781 -5.32617188 282.27539062 C-5.33789855 279.30854211 -5.35431104 276.3417973 -5.375 273.375 C-9.82829429 273.375 -12.17840102 274.62909016 -15.875 276.8125 Z M-239.375 435.375 C-240.35623894 439.29995577 -240.30387176 440.94479038 -239.59765625 444.796875 C-239.41396484 445.82167969 -239.23027344 446.84648437 -239.04101562 447.90234375 C-238.84185547 448.96582031 -238.64269531 450.02929688 -238.4375 451.125 C-238.24220703 452.20394531 -238.04691406 453.28289062 -237.84570312 454.39453125 C-237.36284723 457.05612718 -236.87235831 459.71608255 -236.375 462.375 C-226.33068384 460.89747683 -219.71109258 456.34932184 -213.375 448.375 C-209.76118158 442.22254231 -209.76118158 442.22254231 -208.375 435.375 C-218.605 435.375 -228.835 435.375 -239.375 435.375 Z M-192.375 435.375 C-192.75591797 436.79413696 -192.75591797 436.79413696 -193.14453125 438.24194336 C-193.48871094 439.49112549 -193.83289063 440.74030762 -194.1875 442.02734375 C-194.52394531 443.26218506 -194.86039063 444.49702637 -195.20703125 445.76928711 C-199.0403825 457.60347704 -207.01020084 465.88881089 -217.375 472.375 C-222.53279616 474.90114084 -227.75842231 477.11359366 -233.375 478.375 C-232.74595154 487.54508717 -232.74595154 487.54508717 -230.375 496.375 C-227.25545872 497.93477064 -223.94540616 497.49604126 -220.5234375 497.47265625 C-219.74940582 497.4712413 -218.97537415 497.46982635 -218.17788696 497.46836853 C-215.70188558 497.46276403 -213.22597412 497.45021083 -210.75 497.4375 C-209.07291797 497.43248558 -207.39583453 497.42792257 -205.71875 497.42382812 C-201.60413194 497.41279315 -197.48958122 497.39552554 -193.375 497.375 C-194.75822327 493.89239495 -194.75822327 493.89239495 -196.2265625 490.4453125 C-199.52186184 482.15713537 -200.17458909 471.79924744 -196.8125 463.4375 C-191.56000188 453.71946342 -184.63396404 449.10813221 -174.48046875 445.28515625 C-171.18358848 444.31890077 -168.17368507 443.93204893 -164.75 443.6875 C-163.09097656 443.55794922 -163.09097656 443.55794922 -161.3984375 443.42578125 C-158.77437118 443.38170778 -156.84878853 443.57252714 -154.375 444.375 C-153.18110687 451.53835878 -153.18110687 451.53835878 -153.87109375 454.515625 C-156.24622895 457.45215579 -159.5189195 457.6848166 -163.0625 458.375 C-171.14820254 459.99363925 -177.49477533 462.24236394 -182.375 469.375 C-184.43858939 473.50217877 -184.1283744 479.04680079 -182.7265625 483.37890625 C-179.88434577 488.80826897 -175.28781173 492.80656291 -169.9375 495.6875 C-163.4784613 497.42041282 -157.50996664 497.50980588 -150.9375 496.6875 C-149.81891602 496.54876465 -149.81891602 496.54876465 -148.67773438 496.40722656 C-143.04130262 495.62698688 -138.28668924 494.33173966 -133.375 491.375 C-132.63121094 490.941875 -131.88742188 490.50875 -131.12109375 490.0625 C-126.23842842 487.022194 -122.2987518 483.50569932 -118.32421875 479.3671875 C-115.88007134 476.86916109 -113.27569822 474.61698603 -110.6171875 472.3515625 C-108.93638971 470.86988361 -107.30294355 469.33419884 -105.6953125 467.7734375 C-92.61899335 455.08795058 -77.37131284 447.78809381 -59.375 444.375 C-59.5915625 442.4259375 -59.5915625 442.4259375 -59.8125 440.4375 C-59.89371094 439.70660156 -59.97492188 438.97570312 -60.05859375 438.22265625 C-60.19386614 436.36359771 -60.19386614 436.36359771 -61.375 435.375 C-63.07058703 435.27880559 -64.7702084 435.25312341 -66.46852112 435.25474548 C-67.57214996 435.25337082 -68.67577881 435.25199615 -69.81285095 435.25057983 C-71.64487816 435.25597275 -71.64487816 435.25597275 -73.51391602 435.26147461 C-74.79177979 435.26132858 -76.06964355 435.26118256 -77.38623047 435.2610321 C-80.90053591 435.26074415 -84.4148075 435.2666406 -87.92910504 435.27360606 C-91.59799356 435.27983988 -95.26688277 435.28044342 -98.93577576 435.28163147 C-105.88790435 435.2847447 -112.8400173 435.29295798 -119.79213899 435.30298096 C-127.7049478 435.31414234 -135.61775734 435.31965261 -143.53057206 435.32467639 C-159.81205721 435.3351406 -176.09352661 435.35273989 -192.375 435.375 Z M-99.52783203 483.59716797 C-102.39724827 486.35887681 -105.35487477 489.02099368 -108.3125 491.6875 C-110.01979828 493.22834232 -111.71515342 494.78315458 -113.375 496.375 C-113.375 496.705 -113.375 497.035 -113.375 497.375 C-105.58651879 497.39814533 -97.7980456 497.41592629 -90.00953865 497.42681217 C-86.39322828 497.43203619 -82.77694139 497.43912515 -79.16064453 497.45043945 C-75.67231896 497.46128538 -72.18401602 497.46728047 -68.6956749 497.46987724 C-66.71362308 497.47263081 -64.7315804 497.4804401 -62.74954224 497.48829651 C-60.94790115 497.48840981 -60.94790115 497.48840981 -59.10986328 497.48852539 C-58.04841095 497.490746 -56.98695862 497.49296661 -55.89334106 497.49525452 C-53.37858605 497.54514427 -53.37858605 497.54514427 -51.375 496.375 C-51.80960052 483.83677505 -54.08613228 471.68303226 -56.375 459.375 C-73.53811628 459.375 -88.12843522 472.48983414 -99.52783203 483.59716797 Z " fill="#000000" transform="translate(343.375,-0.375)"/>
<path d="M0 0 C3.59920025 0.44990003 5.01770265 0.85972968 7.5 3.4375 C8.73276118 7.13578355 8.64753982 10.5582666 8.64526367 14.40966797 C8.64862228 15.22137451 8.6519809 16.03308105 8.65544128 16.86938477 C8.66495011 19.55616786 8.6668944 22.24288862 8.66796875 24.9296875 C8.67118149 26.79672267 8.67454558 28.6637576 8.67805481 30.53079224 C8.68404599 34.4464781 8.68589473 38.3621419 8.68530273 42.27783203 C8.68520114 47.29379963 8.69885071 52.30962558 8.71607494 57.32555962 C8.72719727 61.18259327 8.72922187 65.03959272 8.72869301 68.89664078 C8.72987287 70.74579481 8.73429502 72.59494973 8.74202538 74.44408798 C8.75182943 77.03167365 8.74894553 79.61895229 8.74291992 82.20654297 C8.74853943 82.96931549 8.75415894 83.73208801 8.75994873 84.51797485 C8.72880796 89.78416737 8.29917689 93.63832311 4.5 97.4375 C-2.45067265 98.11014574 -2.45067265 98.11014574 -5.9375 95.875 C-9.04083338 91.03379993 -8.62565495 85.00938698 -8.62939453 79.4074707 C-8.63202301 78.41072578 -8.63202301 78.41072578 -8.63470459 77.3938446 C-8.63907224 75.21696284 -8.63620145 73.04016372 -8.6328125 70.86328125 C-8.6334874 69.33261601 -8.63445897 67.80195088 -8.63571167 66.27128601 C-8.63718211 63.06797258 -8.63505663 59.86468712 -8.63037109 56.66137695 C-8.62469842 52.58789219 -8.62794131 48.51447369 -8.63394356 44.4409914 C-8.63758759 41.2793886 -8.63639268 38.11780104 -8.63381577 34.95619774 C-8.63315582 33.45613789 -8.63394172 31.95607659 -8.63629532 30.45601845 C-8.64477841 23.5257785 -8.60051204 16.59476468 -8.24169922 9.67260742 C-8.19649139 8.75178879 -8.15128357 7.83097015 -8.10470581 6.88224792 C-6.96085684 2.25781343 -4.59918146 0.57489768 0 0 Z " fill="#000000" transform="translate(182.5,299.5625)"/>
<path d="M0 0 C2.62290819 1.86364529 3.75308949 3.08056288 4.58950806 6.19519043 C5.08075364 9.55177348 5.15852877 12.79631321 5.19287109 16.18945312 C5.20104858 16.89416245 5.20922607 17.59887177 5.21765137 18.32493591 C5.24235043 20.64369888 5.25897593 22.96240155 5.2734375 25.28125 C5.27876118 26.07580093 5.28408485 26.87035187 5.28956985 27.6889801 C5.31622634 31.88981153 5.33563023 36.09061392 5.35009766 40.29150391 C5.36346477 43.76410091 5.39137803 47.23611418 5.43212891 50.70849609 C5.48141898 54.90942219 5.50621265 59.10981699 5.51332474 63.3110199 C5.52003658 64.90903027 5.53525712 66.5070288 5.55921555 68.10487366 C5.59084476 70.34072843 5.5909095 72.57452705 5.58349609 74.81054688 C5.59158295 76.08119995 5.5996698 77.35185303 5.60800171 78.66101074 C4.83661298 82.89727953 3.33926992 84.36776241 0 87 C-3 87.625 -3 87.625 -6 87 C-9.6764415 84.21042387 -10.87607005 82.69057796 -11.70043945 78.09692383 C-11.75960612 76.53021964 -11.79110455 74.9623224 -11.80078125 73.39453125 C-11.82457352 72.52947464 -11.84836578 71.66441803 -11.87287903 70.77314758 C-11.94336745 67.84857565 -11.97394432 64.92528943 -12 62 C-12.03171239 59.83772748 -12.06345148 57.67545536 -12.09521484 55.51318359 C-12.1655313 49.75249129 -12.18570317 43.99277714 -12.18530273 38.23168945 C-12.18752499 34.64718341 -12.20586554 31.06296903 -12.22460938 27.47851562 C-12.2275381 25.17708437 -12.22952638 22.87565168 -12.23046875 20.57421875 C-12.23765427 19.51377853 -12.24483978 18.45333832 -12.25224304 17.36076355 C-12.23530953 11.87876765 -12.06848541 7.11632656 -10 2 C-6.2794164 -0.48038907 -4.40203429 -0.46337203 0 0 Z " fill="#000000" transform="translate(136,255)"/>
<path d="M0 0 C0.93585938 0.52722656 1.87171875 1.05445313 2.8359375 1.59765625 C7.19989329 3.89390231 10.81993223 5.1127754 15.7109375 5.72265625 C20.9042159 6.40920222 20.9042159 6.40920222 23.9609375 8.91015625 C25.44341125 12.17159851 25.73869837 14.11661899 25.2109375 17.66015625 C23.43109345 20.79607195 22.68785543 21.50118361 19.2109375 22.66015625 C7.86319986 22.88874377 -2.84229624 19.7716884 -11.7890625 12.66015625 C-14.2178487 10.23137005 -14.73456303 9.09615204 -15.1640625 5.66015625 C-14.74895914 2.33932939 -14.13516647 1.00626022 -11.7890625 -1.33984375 C-7.35765307 -2.81698023 -4.17036687 -2.00341153 0 0 Z " fill="#000000" transform="translate(195.7890625,139.33984375)"/>
<path d="M0 0 C2.375 1.0625 2.375 1.0625 4 3 C5.0625 6.3125 5.0625 6.3125 5 10 C0.82755144 17.57222146 -7.79490986 20.3480003 -15.5 23.375 C-20.61428536 24.28826524 -25.85113179 24.85693434 -31 24 C-33.41631551 22.15938382 -34.73305031 20.94260858 -35.56640625 18 C-35.55943627 14.43136874 -35.41271129 12.56010818 -33.25 9.625 C-29.20804042 7.60402021 -25.46411747 7.17608517 -21.015625 6.5625 C-13.05453095 5.07752909 -8.36833819 -0.73406475 0 0 Z " fill="#000000" transform="translate(210,461)"/>
<path d="M0 0 C3.1245612 1.03745196 4.19467476 2.96894356 6 5.6640625 C7.44921875 8.78515625 7.44921875 8.78515625 8.6875 12.1015625 C9.10386719 13.19339844 9.52023437 14.28523437 9.94921875 15.41015625 C12.16910117 22.28436464 12.87249735 29.48350959 12 36.6640625 C9.9375 39.9765625 9.9375 39.9765625 7 41.6640625 C3.34256132 41.6640625 1.06054525 41.47714719 -1.875 39.2265625 C-4.21866102 35.97147775 -4.35303613 33.11459297 -4.8125 29.1640625 C-5.56626446 23.54822954 -6.91527566 18.94279022 -9.1640625 13.77734375 C-10.31597614 10.86526301 -10.57322153 8.74512824 -10 5.6640625 C-7.47111865 0.81703991 -5.12607122 0.10011858 0 0 Z " fill="#000000" transform="translate(267,118.3359375)"/>
<path d="M0 0 C3.1850357 1.76015131 3.83296972 2.49890916 5 6 C5.2519693 9.32904889 5.2311966 12.66239597 5.25 16 C5.270625 16.91523438 5.29125 17.83046875 5.3125 18.7734375 C5.31765625 19.65257812 5.3228125 20.53171875 5.328125 21.4375 C5.34214355 22.64212891 5.34214355 22.64212891 5.35644531 23.87109375 C4.91354513 26.51636057 4.1027304 27.38510814 2 29 C-0.15625 29.3984375 -0.15625 29.3984375 -2.5 29.375 C-3.2734375 29.38273437 -4.046875 29.39046875 -4.84375 29.3984375 C-7.53507776 28.90112694 -8.38034029 28.18259022 -10 26 C-11.31552104 21.7028207 -11.25908944 17.45800119 -11.3125 13 C-11.34150391 12.19304687 -11.37050781 11.38609375 -11.40039062 10.5546875 C-11.46369477 4.65279372 -11.46369477 4.65279372 -9.19921875 1.46484375 C-5.99873485 -0.66691729 -3.75954538 -0.46994317 0 0 Z " fill="#000000" transform="translate(138,356)"/>
</svg>
